<svg width="50" height="36" viewBox="0 0 50 36" fill="none" xmlns="http://www.w3.org/2000/svg">
<path d="M9.02394 16.0834H4.61789C4.40918 16.0834 4.24685 15.9207 4.22366 15.6883L4.22366 11.7373C4.22366 11.5049 4.40918 11.3422 4.61789 11.3422H9.02394C9.25583 11.3422 9.41816 11.5281 9.41816 11.7373L9.41816 15.6883C9.41816 15.9207 9.23264 16.0834 9.02394 16.0834Z" fill="white"/>
<path d="M15.0996 16.0834H10.6936C10.4849 16.0834 10.3226 15.9207 10.2994 15.6883V11.7373C10.2994 11.5049 10.4849 11.3422 10.6936 11.3422L15.0996 11.3422C15.3315 11.3422 15.4939 11.5281 15.4939 11.7373V15.6883C15.4939 15.9207 15.3084 16.0834 15.0996 16.0834Z" fill="white"/>
<path d="M21.2913 16.0834H16.8853C16.6534 16.0834 16.491 15.9207 16.491 15.6883V11.7373C16.491 11.5049 16.6765 11.3422 16.8853 11.3422H21.2913C21.5232 11.3422 21.6855 11.5281 21.6855 11.7373V15.6883C21.6855 15.9207 21.5 16.0834 21.2913 16.0834Z" fill="white"/>
<path d="M27.3902 16.0834H22.9842C22.7754 16.0834 22.5899 15.9207 22.5899 15.6883V11.7373C22.5899 11.5049 22.7754 11.3422 22.9842 11.3422L27.3902 11.3422C27.6221 11.3422 27.7844 11.5281 27.7844 11.7373L27.7844 15.6883C27.7844 15.9207 27.5989 16.0834 27.3902 16.0834Z" fill="white"/>
<path d="M15.0996 10.4358L10.6936 10.4358C10.4849 10.4358 10.3226 10.2499 10.2994 10.0407V6.08972C10.2994 5.85731 10.4849 5.69462 10.6936 5.69462L15.0996 5.69462C15.3315 5.69462 15.4939 5.88055 15.4939 6.08972L15.4939 10.0407C15.4939 10.2499 15.3084 10.4358 15.0996 10.4358Z" fill="white"/>
<path d="M21.2913 10.4358H16.8853C16.6534 10.4358 16.491 10.2499 16.491 10.0407L16.491 6.08972C16.491 5.85731 16.6765 5.69462 16.8853 5.69462L21.2913 5.69462C21.5232 5.69462 21.6855 5.88055 21.6855 6.08972V10.0407C21.6855 10.2499 21.5 10.4358 21.2913 10.4358Z" fill="white"/>
<path d="M27.3902 10.4358L22.9842 10.4358C22.7754 10.4358 22.5899 10.2499 22.5899 10.0407V6.08972C22.5899 5.85731 22.7755 5.69462 22.9842 5.69462L27.3902 5.69462C27.5989 5.69462 27.7844 5.88055 27.7844 6.08972V10.0407C27.7844 10.2499 27.5989 10.4358 27.3902 10.4358Z" fill="white"/>
<path d="M27.3902 4.76498L22.9842 4.76498C22.7755 4.76498 22.5899 4.57905 22.5899 4.36988V0.418904C22.5899 0.186494 22.7755 0.0238037 22.9842 0.0238037L27.3902 0.0238041C27.5989 0.0238041 27.7844 0.209735 27.7844 0.418905V4.36988C27.7844 4.60229 27.5989 4.76498 27.3902 4.76498Z" fill="white"/>
<path d="M33.5355 16.0834L29.1294 16.0834C28.9207 16.0834 28.7584 15.9207 28.7352 15.6883V11.7373C28.7352 11.5049 28.9207 11.3422 29.1294 11.3422H33.5355C33.7674 11.3422 33.9297 11.5281 33.9297 11.7373V15.6883C33.9297 15.9207 33.7442 16.0834 33.5355 16.0834Z" fill="white"/>
<path d="M45.4317 12.5506C48.1217 12.5506 49.3739 13.5035 49.513 13.6197L50 13.9683L49.7913 14.5726C49.4435 15.4093 48.9565 16.153 48.3072 16.7573C47.3332 17.7335 45.5708 18.8723 42.7185 18.8723H42.2547C41.1184 21.8007 39.5647 25.1011 36.9442 28.0527C35.3905 29.8191 33.5585 31.3298 31.5178 32.5151C29.0365 33.9329 26.3465 34.909 23.5406 35.4203C21.5231 35.7922 19.4824 35.9781 17.4417 35.9781C12.9197 35.9781 8.9079 35.1182 6.44979 33.6075C4.26996 32.2595 2.57711 30.0515 1.44082 27.0766C0.443661 24.3573 -0.0433224 21.4754 0.0030572 18.5934C0.00305728 17.7335 0.698748 17.0362 1.55677 17.0362L34.4861 17.0362C34.9035 17.013 36.8979 16.8503 38.1269 16.153C37.1066 14.5261 36.8051 12.6203 37.2921 10.5983C37.5472 9.5524 37.9878 8.52977 38.5675 7.62335L39.0313 6.94934L39.7502 7.36769C39.7579 7.37386 39.778 7.38719 39.8091 7.40774C40.2462 7.69695 42.8451 9.41646 43.3214 12.7365C44.0171 12.6203 44.736 12.5506 45.4317 12.5506Z" fill="white"/>
</svg>
