<svg width="44" height="24" viewBox="0 0 44 24" fill="none" xmlns="http://www.w3.org/2000/svg">
<path d="M42.097 2.4829H36.939C36.8889 2.4829 36.8555 2.4829 36.8055 2.4829H31.4972C31.4304 2.4829 31.3803 2.4829 31.3136 2.50003V1.98601C31.3136 0.906584 31.0465 0.015625 30.7293 0.015625C30.4122 0.015625 29.9948 0.88945 29.8279 1.95175L29.2937 5.27571C29.1268 6.338 29.8446 7.21183 30.8962 7.21183H34.0845C34.4184 7.21183 34.7189 7.16043 34.986 7.07476C34.8858 7.64017 34.4017 8.05139 33.8342 8.05139H29.3605C28.6427 8.05139 28.0919 7.38317 28.2087 6.64641L28.6594 3.8536C28.7763 3.11685 28.2254 2.44863 27.5076 2.44863H5.28967C4.82227 2.44863 4.40496 2.7399 4.22134 3.15111L0.0481658 9.7305C-0.0186049 9.8333 -0.0186052 9.98751 0.0648583 10.0903L0.8828 11.0669C0.982956 11.1869 1.16658 11.204 1.28342 11.1012L4.12118 8.80527V22.7865C4.12118 23.4547 4.63865 23.9858 5.28967 23.9858H11.5995C12.2505 23.9858 12.768 23.4547 12.768 22.7865V17.9205C12.768 17.2522 13.2855 16.7211 13.9365 16.7211H29.6944C30.3454 16.7211 30.8629 17.2522 30.8629 17.9205V22.7865C30.8629 23.4547 31.3803 23.9858 32.0313 23.9858H38.3412C38.9922 23.9858 39.5097 23.4547 39.5097 22.7865V17.5607H36.1544C35.1028 17.5607 34.2348 16.6697 34.2348 15.5903V12.232C34.2348 11.5981 34.5353 11.0155 35.0026 10.6557V14.665C35.0026 15.7445 35.8707 16.6354 36.9223 16.6354H42.0803C43.132 16.6354 44 15.7445 44 14.665V4.45328C44 3.37385 43.1487 2.4829 42.097 2.4829Z" fill="white"/>
</svg>
