<svg width="46" height="44" viewBox="0 0 46 44" fill="none" xmlns="http://www.w3.org/2000/svg">
<path d="M44.2807 26.8618C44.213 26.8618 44.1453 26.8618 44.1453 26.7939C44.1453 26.726 44.0098 26.726 43.8743 26.726C43.6034 26.6581 43.3324 26.6581 43.0615 26.6581C42.926 26.6581 42.7905 26.6581 42.6551 26.5902H42.5873C41.8422 26.5223 41.0294 26.3865 40.2843 26.1828C40.0811 26.1149 39.8779 25.9112 39.8101 25.7075C39.8779 25.7075 39.8101 25.7075 39.8101 25.7075L39.2682 25.5717C39.5392 23.6026 39.4037 21.5656 38.9973 19.5965C38.5232 17.6274 37.7103 15.7262 36.6265 14.0287L37.033 13.6213V13.5534C37.033 13.3497 37.1007 13.0781 37.2362 12.9423C37.8458 12.3991 38.4554 11.9917 39.1328 11.5843C39.2683 11.5164 39.4037 11.4485 39.5392 11.3806C39.8101 11.2448 40.0134 11.109 40.2843 10.9732C40.352 10.9053 40.4198 10.9053 40.4875 10.8374C40.5552 10.7695 40.4875 10.7695 40.4875 10.7016C41.0971 10.2263 41.2326 9.41154 40.7585 8.80044C40.5552 8.52884 40.1488 8.32513 39.8101 8.32513C39.4715 8.32513 39.1328 8.46093 38.8618 8.66463L38.7941 8.73254C38.7264 8.80044 38.6586 8.86834 38.5909 8.86834C38.3877 9.07204 38.1845 9.27574 38.049 9.47944C37.9813 9.61524 37.8458 9.68314 37.7781 9.75104C37.3039 10.2942 36.6943 10.8374 36.0846 11.2448C35.9492 11.3127 35.8137 11.3806 35.6782 11.3806C35.6105 11.3806 35.475 11.3806 35.4073 11.3127H35.3395L34.7977 11.6522C34.2558 11.109 33.6461 10.5658 33.1042 10.0226C30.598 8.05353 27.4821 6.83133 24.2985 6.49183L24.2308 5.94863V6.01653C24.0276 5.88073 23.9598 5.67703 23.8921 5.47333C23.8921 4.72643 23.8921 3.97953 24.0276 3.16473V3.09683C24.0276 2.96103 24.0953 2.82523 24.0953 2.68943C24.163 2.41783 24.163 2.14623 24.2308 1.87463V1.46723C24.2985 0.788231 23.7566 0.10923 23.0793 0.0413301C22.6728 -0.02657 22.2664 0.17713 21.9277 0.51663C21.6568 0.78823 21.5213 1.12773 21.5213 1.46723V1.80673C21.5213 2.07833 21.5891 2.34993 21.6568 2.62153C21.7245 2.75733 21.7245 2.89313 21.7245 3.02893V3.09683C21.86 3.84373 21.86 4.59063 21.86 5.40543C21.7923 5.60913 21.7245 5.81283 21.5213 5.94863V6.08443L21.4536 6.62763C20.7085 6.69553 19.9634 6.83133 19.1506 6.96713C15.967 7.64613 13.0543 9.34364 10.819 11.7201L10.4126 11.4485H10.3448C10.2771 11.4485 10.2094 11.5164 10.0739 11.5164C9.93842 11.5164 9.80295 11.4485 9.66747 11.3806C9.05785 10.9053 8.44822 10.3621 7.97406 9.81894C7.90633 9.68314 7.77086 9.61524 7.70312 9.54734C7.49991 9.34364 7.36444 9.13993 7.16123 8.93623C7.09349 8.86833 7.02576 8.86834 6.95802 8.80044C6.89028 8.73254 6.89028 8.73254 6.89028 8.73254C6.61934 8.52884 6.28066 8.39303 5.94197 8.39303C5.53556 8.39303 5.19687 8.52884 4.99367 8.86834C4.58725 9.47944 4.72272 10.2942 5.26461 10.7695C5.33235 10.7695 5.33235 10.8374 5.33235 10.8374C5.33235 10.8374 5.46782 10.9732 5.53556 10.9732C5.73876 11.109 6.00971 11.2448 6.28066 11.3806C6.41613 11.4485 6.5516 11.5164 6.68707 11.5843C7.36444 11.9917 8.0418 12.3991 8.58369 12.9423C8.71916 13.0781 8.85464 13.3497 8.7869 13.5534V13.4855L9.19332 13.8929C9.12558 14.0287 9.05785 14.0966 8.99011 14.2324C6.89028 17.5595 6.00971 21.4977 6.61934 25.368L6.07745 25.5038C6.07745 25.5717 6.00971 25.5717 6.00971 25.5717C5.94197 25.7754 5.73876 25.9112 5.53556 26.047C4.79046 26.2507 4.04536 26.3865 3.23252 26.4544C3.09705 26.4544 2.96158 26.4544 2.8261 26.5223C2.55516 26.5223 2.28421 26.5902 2.01327 26.5902C1.94553 26.5902 1.87779 26.6581 1.74232 26.6581C1.67458 26.6581 1.67458 26.6581 1.60685 26.726C0.861748 26.8618 0.387594 27.5408 0.523066 28.2877C0.658539 28.8988 1.26817 29.3062 1.87779 29.2383C2.01327 29.2383 2.081 29.2383 2.21647 29.1704C2.28421 29.1704 2.28421 29.1704 2.28421 29.1025C2.28421 29.0346 2.48742 29.1025 2.55516 29.1025C2.8261 29.0346 3.09705 28.8988 3.30026 28.8309C3.43573 28.763 3.5712 28.6951 3.70667 28.6951H3.77441C4.51951 28.4235 5.19687 28.2198 6.00971 28.084H6.07745C6.28065 28.084 6.48386 28.1519 6.61934 28.2877C6.68707 28.2877 6.68707 28.3556 6.68707 28.3556L7.2967 28.2877C8.31275 31.4111 10.2094 34.195 12.8511 36.2321C13.4607 36.7074 14.0026 37.1148 14.68 37.4543L14.3413 37.9296C14.3413 37.9975 14.409 37.9975 14.409 37.9975C14.5445 38.2011 14.5445 38.4728 14.4768 38.6764C14.2058 39.3554 13.7994 40.0345 13.393 40.6456V40.7135C13.3252 40.8493 13.2575 40.9172 13.122 41.053C12.9866 41.1888 12.8511 41.4604 12.6479 41.732C12.5801 41.7999 12.5801 41.8678 12.5124 41.9357C12.5124 41.9357 12.5124 42.0036 12.4447 42.0036C12.106 42.6826 12.3769 43.4974 12.9866 43.8369C13.122 43.9048 13.3252 43.9727 13.4607 43.9727C14.0026 43.9727 14.4768 43.6332 14.7477 43.1579C14.7477 43.1579 14.7477 43.09 14.8154 43.09C14.8154 43.0221 14.8832 42.9542 14.9509 42.8863C15.0186 42.6147 15.1541 42.411 15.2219 42.1394L15.3573 41.732C15.5605 40.9851 15.8992 40.3061 16.2379 39.6271C16.3734 39.4234 16.5766 39.2876 16.7798 39.2197C16.8475 39.2197 16.8475 39.2197 16.8475 39.1518L17.1185 38.6086C19.0151 39.3555 20.9794 39.695 23.0115 39.695C24.2308 39.695 25.45 39.5592 26.6693 39.2197C27.4144 39.0839 28.1595 38.8123 28.8369 38.6086L29.1078 39.0839C29.1755 39.0839 29.1755 39.0839 29.1755 39.1518C29.3787 39.2197 29.582 39.3555 29.7174 39.5592C30.0561 40.2382 30.3948 40.9172 30.598 41.6641V41.732L30.7335 42.1394C30.8012 42.411 30.8689 42.6826 31.0044 42.8863C31.0722 42.9542 31.0722 43.0221 31.1399 43.09C31.1399 43.09 31.1399 43.1579 31.2076 43.1579C31.4786 43.6332 31.9527 43.9727 32.4946 43.9727C32.6978 43.9727 32.8333 43.9048 33.0365 43.8369C33.3075 43.7011 33.5784 43.4295 33.6461 43.09C33.7139 42.7505 33.7139 42.411 33.5784 42.0715C33.5784 42.0036 33.5107 42.0036 33.5107 42.0036C33.5107 41.9357 33.4429 41.8678 33.3752 41.7999C33.2397 41.5283 33.1042 41.3246 32.901 41.1208C32.8333 40.9851 32.7656 40.9172 32.6301 40.7813V40.6456C32.1559 40.0345 31.8173 39.3554 31.5463 38.6764C31.4786 38.4728 31.4786 38.2011 31.614 37.9975C31.614 37.9296 31.6818 37.9296 31.6818 37.9296L31.4786 37.3863C34.9331 35.2814 37.5748 32.0222 38.7941 28.1519L39.336 28.2198C39.4037 28.2198 39.4037 28.1519 39.4037 28.1519C39.5392 28.0161 39.7424 27.9482 39.9456 27.9482H40.0134C40.7585 28.084 41.5036 28.2877 42.1809 28.5593H42.2486C42.3841 28.6272 42.5196 28.6951 42.6551 28.6951C42.926 28.8309 43.1292 28.9667 43.4002 29.0346C43.4679 29.0346 43.5356 29.1025 43.6711 29.1025C43.7388 29.1025 43.7389 29.1025 43.8066 29.1704C43.9421 29.2383 44.0098 29.2383 44.1453 29.2383C44.7549 29.2383 45.2968 28.8309 45.5 28.2877C45.4323 27.5408 44.8904 26.9976 44.2807 26.8618ZM24.7049 24.7569L22.8761 25.6396L21.0472 24.7569L20.573 22.7878L21.86 21.1582H23.8921L25.1791 22.7878L24.7049 24.7569ZM35.746 20.3434C36.0846 21.7693 36.1524 23.1952 36.0169 24.6211L29.582 22.7878C28.9723 22.652 28.6336 22.0409 28.7691 21.4298C28.8369 21.2261 28.9046 21.0903 29.0401 20.9545L34.1203 16.3373C34.8654 17.5595 35.4073 18.9175 35.746 20.3434ZM32.0882 13.825L26.5338 17.7632C26.0597 18.0348 25.3823 17.9669 25.0436 17.4916C24.9081 17.3558 24.8404 17.22 24.8404 17.0163L24.434 10.1584C27.4144 10.4979 30.0561 11.788 32.0882 13.825ZM19.8279 10.3621L21.1826 10.0905L20.844 16.8805C20.844 17.4916 20.3021 17.9669 19.6924 17.9669C19.4892 17.9669 19.3538 17.899 19.1506 17.8311L13.5284 13.825C15.2896 12.1275 17.4572 10.9053 19.8279 10.3621ZM11.5641 16.3373L16.5766 20.8187C17.0507 21.2261 17.1185 21.9051 16.712 22.3804C16.5766 22.5841 16.4411 22.652 16.1702 22.7199L9.59974 24.6211C9.39653 21.7693 10.0739 18.8496 11.5641 16.3373ZM10.4126 27.8124L17.1185 26.6581C17.6604 26.6581 18.2023 26.9976 18.27 27.5408C18.3377 27.7445 18.3377 28.0161 18.2022 28.2198L15.6283 34.4667C13.2575 32.9049 11.3609 30.5284 10.4126 27.8124ZM25.7887 36.2321C24.8404 36.4357 23.8921 36.5716 22.8761 36.5716C21.4536 36.5716 19.9634 36.2999 18.6087 35.8926L21.9277 29.8494C22.2664 29.442 22.8083 29.3062 23.2825 29.5778C23.4857 29.7136 23.6212 29.8494 23.8244 30.0531L27.0757 35.9604C26.6693 36.0284 26.2629 36.0962 25.7887 36.2321ZM34.0526 30.3247C33.0365 31.9543 31.614 33.3802 29.9884 34.3988L27.3467 28.0161C27.2112 27.4729 27.4821 26.9297 27.9563 26.726C28.1595 26.6581 28.3627 26.5902 28.5659 26.5902L35.3395 27.7445C35.0009 28.6951 34.5944 29.5778 34.0526 30.3247Z" fill="white"/>
</svg>
