<svg width="44" height="40" viewBox="0 0 44 40" fill="none" xmlns="http://www.w3.org/2000/svg">
<path d="M32.2736 10.9263C31.1996 9.84218 29.9267 8.91753 28.4571 8.23945C21.897 5.21573 14.0716 8.03007 11.0119 14.5154C10.3273 15.969 9.95424 17.4853 9.83696 18.9984L12.7774 17.9408C12.6882 19.0982 12.7656 20.2545 12.9838 21.3768L6.71194 23.6343C7.19259 26.1167 8.39554 28.4408 10.2047 30.2771L6.60197 31.5739L13.5367 29.0792C14.6064 30.1654 15.8889 31.0826 17.3607 31.7617C23.9197 34.7854 31.7462 31.9711 34.8048 25.4848C35.4918 24.0298 35.8777 22.5132 35.9906 21.0008L43.0398 18.465C43.3086 21.7841 42.7464 25.2149 41.2208 28.4426C36.512 38.4255 24.4669 42.7597 14.3688 38.1056C11.1016 36.5986 8.43976 34.3295 6.48743 31.6151L3.15653 32.814C1.68584 30.7681 0.616139 28.4693 0.00012207 26.0504L6.27198 23.7919C5.99803 22.7085 5.80247 21.6027 5.71214 20.4832L2.77259 21.5406C2.50598 18.2183 3.07254 14.7875 4.59699 11.5576C9.30472 1.57557 21.352 -2.75861 31.4501 1.89654C34.7149 3.40248 37.3799 5.67039 39.3365 8.38465L42.2767 7.32686C42.9378 8.24193 43.5076 9.21228 44 10.2177L37.2894 12.6324C36.7251 11.6335 36.035 10.6994 35.2138 9.86842L32.2736 10.9263Z" fill="white"/>
<path d="M31.0162 14.8897L37.7278 12.475C38.8319 14.7207 39.506 17.162 39.7081 19.6627L32.6589 22.1975C32.8524 19.6404 32.2633 17.0982 31.0162 14.8897Z" fill="white"/>
</svg>
