<svg width="24" height="23" viewBox="0 0 24 23" fill="none" xmlns="http://www.w3.org/2000/svg">
<path fill-rule="evenodd" clip-rule="evenodd" d="M0 1.5C0 0.671573 0.671573 0 1.5 0H10.5C11.3284 0 12 0.671573 12 1.5C12 2.32843 11.3284 3 10.5 3H1.5C0.671573 3 0 2.32843 0 1.5Z" fill="#000D1A"/>
<path fill-rule="evenodd" clip-rule="evenodd" d="M0 11.5C0 10.6716 0.671573 10 1.5 10H22.5C23.3284 10 24 10.6716 24 11.5C24 12.3284 23.3284 13 22.5 13H1.5C0.671573 13 0 12.3284 0 11.5Z" fill="#000D1A"/>
<path fill-rule="evenodd" clip-rule="evenodd" d="M12 21.5C12 20.6716 12.6716 20 13.5 20H22.5C23.3284 20 24 20.6716 24 21.5C24 22.3284 23.3284 23 22.5 23H13.5C12.6716 23 12 22.3284 12 21.5Z" fill="#000D1A"/>
</svg>
