<svg width="34" height="34" viewBox="0 0 34 34" fill="none" xmlns="http://www.w3.org/2000/svg">
<path d="M17 34C7.61116 34 -3.32694e-07 26.3888 -7.43094e-07 17C-1.15349e-06 7.61116 7.61116 -3.32694e-07 17 -7.43094e-07C26.3888 -1.15349e-06 34 7.61116 34 17C34 26.3888 26.3888 34 17 34Z" fill="#B9BFC6"/>
<path d="M21.9987 13.2365C21.9632 13.1955 21.9194 13.1624 21.8705 13.1396C21.8215 13.1168 21.7683 13.1047 21.7144 13.1041H18.8169V12.0054C18.8169 11.7873 18.8631 11.5379 19.2089 11.5379H21.5146C21.5652 11.5401 21.6156 11.5308 21.6622 11.5105C21.7087 11.4903 21.7502 11.4597 21.7835 11.4211C21.8513 11.3498 21.8898 11.2551 21.8911 11.1562V8.03949C21.8911 7.93616 21.8507 7.83707 21.7786 7.76401C21.7065 7.69095 21.6088 7.6499 21.5069 7.6499H18.179C14.49 7.6499 14.2056 10.8445 14.2056 11.8184V13.1041H12.2843C12.1824 13.1041 12.0846 13.1451 12.0125 13.2182C11.9405 13.2912 11.9 13.3903 11.9 13.4937V16.6103C11.9 16.7136 11.9405 16.8127 12.0125 16.8858C12.0846 16.9589 12.1824 16.9999 12.2843 16.9999H14.2056V25.9603C14.2056 26.0636 14.2461 26.1627 14.3182 26.2358C14.3903 26.3089 14.488 26.3499 14.5899 26.3499H18.4327C18.5346 26.3499 18.6323 26.3089 18.7044 26.2358C18.7765 26.1627 18.8169 26.0636 18.8169 25.9603V16.9999H21.3916C21.4872 17.0004 21.5795 16.9647 21.6506 16.8999C21.7216 16.8351 21.7663 16.7457 21.7759 16.6493L22.0986 13.5326C22.1031 13.4789 22.0965 13.4249 22.0793 13.374C22.0621 13.323 22.0347 13.2762 21.9987 13.2365Z" fill="white"/>
</svg>
