<svg width="34" height="34" viewBox="0 0 34 34" fill="none" xmlns="http://www.w3.org/2000/svg">
<path d="M17 -7.43094e-07C26.3888 -3.32694e-07 34 7.61116 34 17C34 26.3888 26.3888 34 17 34C7.61116 34 -1.15349e-06 26.3888 -7.43094e-07 17C-3.32694e-07 7.61116 7.61116 -1.15349e-06 17 -7.43094e-07Z" fill="#B9BFC6"/>
<path d="M17 5.94995C10.8949 5.94995 5.95001 10.8281 5.95001 16.8446C5.95001 21.659 9.11584 25.7417 13.5054 27.1812C14.0579 27.2837 14.2605 26.9465 14.2605 26.6573C14.2605 26.3986 14.2513 25.7131 14.2467 24.8049C11.173 25.4618 10.5247 23.3433 10.5247 23.3433C10.0219 22.0859 9.2954 21.7496 9.2954 21.7496C8.29445 21.0742 9.37275 21.088 9.37275 21.088C10.4824 21.1638 11.0652 22.2106 11.0652 22.2106C12.0505 23.8764 13.6519 23.395 14.2836 23.1169C14.383 22.412 14.6675 21.9325 14.9834 21.6599C12.5294 21.3874 9.95011 20.4506 9.95011 16.2764C9.95011 15.0873 10.3783 14.1154 11.0873 13.3532C10.963 13.0778 10.5901 11.9701 11.184 10.4697C11.184 10.4697 12.1095 10.1777 14.2228 11.5867C15.1068 11.3446 16.046 11.2245 16.9853 11.2189C17.9245 11.2245 18.8638 11.3446 19.7478 11.5867C21.8473 10.1777 22.7727 10.4697 22.7727 10.4697C23.3667 11.9701 22.9937 13.0778 22.8832 13.3532C23.5877 14.1154 24.0158 15.0873 24.0158 16.2764C24.0158 20.4616 21.4329 21.3828 18.9743 21.6507C19.361 21.9778 19.7202 22.6457 19.7202 23.6666C19.7202 25.1246 19.7063 26.2961 19.7063 26.6499C19.7063 26.9354 19.8997 27.2763 20.466 27.1673C24.8869 25.7371 28.05 21.6516 28.05 16.8446C28.05 10.8281 23.1024 5.94995 17 5.94995Z" fill="white"/>
</svg>
