<svg width="34" height="34" viewBox="0 0 34 34" fill="none" xmlns="http://www.w3.org/2000/svg">
<path d="M17 -7.43094e-07C26.3888 -3.32694e-07 34 7.61116 34 17C34 26.3888 26.3888 34 17 34C7.61116 34 -1.15349e-06 26.3888 -7.43094e-07 17C-3.32694e-07 7.61116 7.61116 -1.15349e-06 17 -7.43094e-07Z" fill="#B9BFC6"/>
<path d="M17.001 26.3966L16.9991 26.394L17 26.3967L7.1207 19.2188C6.98785 19.1222 6.88897 18.9861 6.83824 18.8299C6.7875 18.6737 6.78752 18.5054 6.83829 18.3492L10.2421 7.87481C10.3584 7.51653 10.8652 7.51653 10.9816 7.87481L13.2449 14.8401L13.2452 14.8338H20.7562L23.0185 7.87149C23.1349 7.51321 23.6417 7.51321 23.758 7.87149L26.0204 14.8338H26.0215L27.1626 18.3464C27.2134 18.5026 27.2134 18.6708 27.1626 18.827C27.1119 18.9832 27.013 19.1194 26.8802 19.2159L17.0022 26.3961L17.001 26.3966Z" fill="white"/>
</svg>
