<svg width="34" height="34" viewBox="0 0 34 34" fill="none" xmlns="http://www.w3.org/2000/svg">
<path d="M0 17C0 7.61116 7.61116 0 17 0C26.3888 0 34 7.61116 34 17C34 26.3888 26.3888 34 17 34C7.61116 34 0 26.3888 0 17Z" fill="#B9BFC6"/>
<path d="M20.8958 8.5H13.1042C11.8836 8.50187 10.7136 8.98756 9.8506 9.8506C8.98756 10.7136 8.50187 11.8836 8.5 13.1042V20.8958C8.50187 22.1164 8.98756 23.2864 9.8506 24.1494C10.7136 25.0124 11.8836 25.4981 13.1042 25.5H20.8958C22.1164 25.4981 23.2864 25.0124 24.1494 24.1494C25.0124 23.2864 25.4981 22.1164 25.5 20.8958V13.1042C25.4981 11.8836 25.0124 10.7136 24.1494 9.8506C23.2864 8.98756 22.1164 8.50187 20.8958 8.5V8.5ZM17 20.8958C16.2295 20.8958 15.4763 20.6673 14.8356 20.2393C14.1949 19.8112 13.6956 19.2027 13.4007 18.4909C13.1059 17.779 13.0287 16.9957 13.179 16.24C13.3293 15.4842 13.7004 14.7901 14.2452 14.2452C14.7901 13.7004 15.4842 13.3293 16.24 13.179C16.9957 13.0287 17.779 13.1059 18.4909 13.4007C19.2027 13.6956 19.8112 14.1949 20.2393 14.8356C20.6673 15.4763 20.8958 16.2295 20.8958 17C20.8958 18.0332 20.4854 19.0242 19.7548 19.7548C19.0242 20.4854 18.0332 20.8958 17 20.8958ZM21.6042 13.1042C21.394 13.1042 21.1886 13.0419 21.0139 12.9251C20.8391 12.8084 20.703 12.6424 20.6225 12.4483C20.5421 12.2541 20.5211 12.0405 20.5621 11.8344C20.6031 11.6283 20.7043 11.439 20.8529 11.2904C21.0015 11.1418 21.1908 11.0406 21.3969 10.9996C21.603 10.9586 21.8166 10.9796 22.0108 11.06C22.2049 11.1405 22.3709 11.2766 22.4876 11.4514C22.6044 11.6261 22.6667 11.8315 22.6667 12.0417C22.6667 12.3235 22.5547 12.5937 22.3555 12.793C22.1562 12.9922 21.886 13.1042 21.6042 13.1042Z" fill="white"/>
</svg>
