<svg width="34" height="34" viewBox="0 0 34 34" fill="none" xmlns="http://www.w3.org/2000/svg">
<path d="M34 17C34 26.3888 26.3888 34 17 34C7.61116 34 3.14931e-06 26.3888 2.32851e-06 17C1.50771e-06 7.61117 7.61116 6.12168e-06 17 5.30088e-06C26.3888 4.48009e-06 34 7.61116 34 17Z" fill="#B9BFC6"/>
<path d="M11.3526 10.8477C12.4586 10.8477 13.3552 9.94157 13.3552 8.82385C13.3552 7.70614 12.4586 6.80005 11.3526 6.80005C10.2466 6.80005 9.34998 7.70614 9.34998 8.82385C9.34998 9.94157 10.2466 10.8477 11.3526 10.8477Z" fill="white"/>
<path d="M12.9837 12.4667H9.75372C9.53074 12.4667 9.34998 12.6479 9.34998 12.8715V23.3952C9.34998 23.6188 9.53074 23.8 9.75372 23.8H12.9837C13.2067 23.8 13.3875 23.6188 13.3875 23.3952V12.8715C13.3875 12.6479 13.2067 12.4667 12.9837 12.4667Z" fill="white"/>
<path d="M25.0962 23.8H22.6737C22.5667 23.8 22.464 23.7574 22.3882 23.6815C22.3125 23.6056 22.27 23.5026 22.27 23.3953V17.3239C22.27 16.7871 22.0573 16.2724 21.6787 15.8928C21.3001 15.5133 20.7866 15.3001 20.2512 15.3001C19.7158 15.3001 19.2024 15.5133 18.8238 15.8928C18.4452 16.2724 18.2325 16.7871 18.2325 17.3239V23.3953C18.2325 23.5026 18.19 23.6056 18.1142 23.6815C18.0385 23.7574 17.9358 23.8 17.8288 23.8H15.4063C15.2992 23.8 15.1965 23.7574 15.1208 23.6815C15.0451 23.6056 15.0025 23.5026 15.0025 23.3953V12.8715C15.0025 12.7642 15.0451 12.6612 15.1208 12.5853C15.1965 12.5094 15.2992 12.4667 15.4063 12.4667H17.8288C17.9358 12.4667 18.0385 12.5094 18.1142 12.5853C18.19 12.6612 18.2325 12.7642 18.2325 12.8715C18.2322 12.9393 18.2527 13.0055 18.2911 13.0614C18.3295 13.1172 18.384 13.1598 18.4473 13.1836C18.5106 13.2074 18.5797 13.2112 18.6453 13.1945C18.7108 13.1778 18.7696 13.1413 18.8139 13.0901C19.1453 12.749 19.5442 12.4812 19.9851 12.3041C20.426 12.1271 20.899 12.0446 21.3737 12.062C23.78 12.062 25.5 13.5434 25.5 16.5953V23.3953C25.5 23.5026 25.4574 23.6056 25.3817 23.6815C25.306 23.7574 25.2033 23.8 25.0962 23.8Z" fill="white"/>
</svg>
