<svg width="34" height="34" viewBox="0 0 34 34" fill="none" xmlns="http://www.w3.org/2000/svg">
<path d="M0 17C0 7.61116 7.61116 0 17 0C26.3888 0 34 7.61116 34 17C34 26.3888 26.3888 34 17 34C7.61116 34 0 26.3888 0 17Z" fill="#B9BFC6"/>
<path d="M26.2041 12.4858C26.2616 12.438 26.3048 12.3752 26.3288 12.3044C26.3527 12.2335 26.3565 12.1574 26.3397 12.0845C26.323 12.0117 26.2863 11.9449 26.2337 11.8916C26.1812 11.8383 26.1149 11.8006 26.0422 11.7827L25.403 11.6211C25.3449 11.6065 25.2907 11.5793 25.2444 11.5413C25.1981 11.5033 25.1608 11.4555 25.1353 11.4014C25.1097 11.3473 25.0965 11.2881 25.0967 11.2283C25.0968 11.1685 25.1102 11.1094 25.136 11.0554L25.492 10.3361C25.5256 10.2664 25.5385 10.1885 25.5291 10.1117C25.5198 10.0349 25.4885 9.96239 25.4391 9.90282C25.3896 9.84324 25.3241 9.79909 25.2503 9.7756C25.1765 9.75212 25.0975 9.7503 25.0227 9.77035L23.4043 10.2229C23.3441 10.2405 23.2805 10.2438 23.2187 10.2326C23.1569 10.2214 23.0986 10.1959 23.0483 10.1583C22.348 9.63368 21.4962 9.3501 20.6208 9.3501C19.5478 9.3501 18.5187 9.77583 17.76 10.5336C17.0013 11.2915 16.575 12.3193 16.575 13.391V13.6819C16.5754 13.7316 16.5574 13.7796 16.5246 13.8169C16.4918 13.8541 16.4463 13.878 16.397 13.884C14.1233 14.1507 11.9466 12.995 9.60003 10.2957C9.54905 10.2395 9.48356 10.1985 9.41076 10.1771C9.33795 10.1557 9.26065 10.1548 9.18736 10.1744C9.12133 10.2048 9.06469 10.2523 9.0234 10.312C8.98211 10.3717 8.95769 10.4415 8.9527 10.5139C8.62859 11.8436 8.75963 13.2434 9.32491 14.4901C9.34164 14.5232 9.34894 14.5602 9.34602 14.5971C9.3431 14.6341 9.33007 14.6695 9.30835 14.6995C9.28663 14.7295 9.25707 14.753 9.22288 14.7674C9.1887 14.7818 9.15122 14.7865 9.11453 14.7811L8.20827 14.6033C8.14391 14.5929 8.078 14.5983 8.01616 14.6189C7.95432 14.6394 7.89837 14.6746 7.85308 14.7215C7.80778 14.7683 7.77449 14.8253 7.75603 14.8878C7.73757 14.9502 7.73449 15.0162 7.74705 15.0801C7.81691 15.7003 8.02554 16.2969 8.35749 16.8257C8.68945 17.3545 9.13623 17.802 9.66476 18.135C9.69896 18.1515 9.72781 18.1774 9.74799 18.2095C9.76817 18.2417 9.77888 18.2789 9.77888 18.3168C9.77888 18.3548 9.76817 18.392 9.74799 18.4241C9.72781 18.4563 9.69896 18.4821 9.66476 18.4987L9.23591 18.6684C9.18382 18.6892 9.13666 18.7207 9.0974 18.7607C9.05814 18.8008 9.02765 18.8485 9.00786 18.901C8.98808 18.9534 8.97943 19.0094 8.98247 19.0654C8.98551 19.1213 9.00017 19.176 9.02552 19.226C9.26268 19.7443 9.62217 20.1975 10.0731 20.5466C10.5241 20.8956 11.0531 21.1303 11.6148 21.2303C11.6539 21.2445 11.6876 21.2703 11.7115 21.3043C11.7353 21.3383 11.7481 21.3787 11.7481 21.4202C11.7481 21.4617 11.7353 21.5022 11.7115 21.5362C11.6876 21.5702 11.6539 21.596 11.6148 21.6102C10.5147 22.0646 9.33403 22.2928 8.14354 22.281C8.03623 22.2595 7.9248 22.2815 7.83375 22.3422C7.74271 22.4028 7.6795 22.4971 7.65804 22.6042C7.63658 22.7114 7.65862 22.8227 7.71932 22.9136C7.78002 23.0046 7.8744 23.0677 7.9817 23.0891C10.0431 24.0656 12.2874 24.5971 14.5683 24.6489C16.5746 24.6795 18.5451 24.1171 20.2324 23.0326C21.6203 22.1072 22.7574 20.8533 23.5424 19.3826C24.3274 17.9118 24.7358 16.2699 24.7314 14.6033V13.9001C24.7319 13.8415 24.7452 13.7836 24.7703 13.7306C24.7955 13.6775 24.8319 13.6306 24.877 13.593L26.2041 12.4858Z" fill="white"/>
</svg>
