<svg width="34" height="34" viewBox="0 0 34 34" fill="none" xmlns="http://www.w3.org/2000/svg">
<path d="M17 -7.43094e-07C26.3888 -3.32694e-07 34 7.61116 34 17C34 26.3888 26.3888 34 17 34C7.61116 34 -1.15349e-06 26.3888 -7.43094e-07 17C-3.32694e-07 7.61116 7.61116 -1.15349e-06 17 -7.43094e-07Z" fill="#B9BFC6"/>
<path fill-rule="evenodd" clip-rule="evenodd" d="M25.7091 11.2412C26.0127 11.5427 26.2314 11.918 26.3436 12.3296C26.9893 14.9114 26.8401 18.9889 26.3561 21.6703C26.244 22.0819 26.0252 22.4572 25.7216 22.7587C25.4181 23.0603 25.0403 23.2776 24.6258 23.389C23.1087 23.8 17.0027 23.8 17.0027 23.8C17.0027 23.8 10.8966 23.8 9.37947 23.389C8.96505 23.2776 8.58724 23.0603 8.28367 22.7587C7.98009 22.4572 7.76134 22.0819 7.6492 21.6703C6.99973 19.0997 7.17777 15.0197 7.63667 12.3421C7.7488 11.9304 7.96755 11.5552 8.27113 11.2536C8.57471 10.9521 8.95251 10.7348 9.36693 10.6234C10.884 10.2124 16.9901 10.2 16.9901 10.2C16.9901 10.2 23.0962 10.2 24.6133 10.6109C25.0277 10.7223 25.4055 10.9396 25.7091 11.2412ZM20.4509 16.9999L15.4194 19.9142V14.0856L20.4509 16.9999Z" fill="white"/>
</svg>
